<svg aria-hidden="true" style="position: absolute; width: 0; height: 0; overflow: hidden;" version="1.1" xmlns="http://www.w3.org/2000/svg" xmlns:xlink="http://www.w3.org/1999/xlink">
<defs>
<symbol id="icon-phone-border" viewBox="0 0 32 32">
<title>phone-border</title>
<path fill="#c9b28a" style="fill: var(--color1, #c9b28a)" d="M13.061 11.755c-0.653 0.653-2.612 1.959-0.653 3.265 1.306 1.959 3.265 3.918 3.918 4.571s1.959 1.306 3.265 0c1.306-1.306 1.306-1.306 1.959-0.653 1.306 0 2.612 0.653 3.265 1.959 0.653 0.653 0.653 1.306 0 1.959s-1.306 1.959-3.265 1.959c-1.306 0.653-1.959 0.653-3.918-0.653-1.306-0.653-7.184-6.531-8.49-7.837-1.306-0.653-1.959-1.959-2.612-3.918 0-1.306 0-2.612 1.306-3.918s1.306-1.959 1.959-1.959c0.653 0 0.653 0 1.959 0.653 0.653 0.653 1.306 1.959 1.959 2.612 0 0.653 0 1.306-0.653 1.959z"></path>
<path fill="none" stroke="#c9b28a" style="stroke: var(--color1, #c9b28a)" stroke-linejoin="miter" stroke-linecap="butt" stroke-miterlimit="10" stroke-width="2.2857" d="M30.694 15.673c0 8.296-6.725 15.020-15.020 15.020s-15.020-6.725-15.020-15.020c0-8.296 6.725-15.020 15.020-15.020s15.020 6.725 15.020 15.020z"></path>
</symbol>
<symbol id="icon-close" viewBox="0 0 32 32">
<title>close</title>
<path stroke-linejoin="miter" stroke-linecap="butt" stroke-miterlimit="10" stroke-width="1.8857" d="M31.413 0.587l-30.826 30.826"></path>
<path stroke-linejoin="miter" stroke-linecap="butt" stroke-miterlimit="10" stroke-width="1.8857" d="M0.587 0.587l30.826 30.826"></path>
</symbol>
<symbol id="icon-play" viewBox="0 0 18 32">
<title>play</title>
<path d="M18.061 16l-18.061-16v32z"></path>
</symbol>
<symbol id="icon-star" viewBox="0 0 34 32">
<title>star</title>
<path d="M17.067 0l4.8 10.667 11.733 1.6-8 8 1.6 11.733-10.133-5.333-10.667 5.333 2.133-11.733-8.533-8 11.733-1.6z"></path>
</symbol>
<symbol id="icon-bag" viewBox="0 0 28 32">
<title>bag</title>
<path stroke-linejoin="miter" stroke-linecap="butt" stroke-miterlimit="10" stroke-width="1.8391" d="M8.092 9.563h18.759v21.701h-18.759v-21.701z"></path>
<path  stroke-linejoin="miter" stroke-linecap="butt" stroke-miterlimit="10" stroke-width="1.8391" d="M0.736 9.563h6.989v21.701h-6.989v-21.701z"></path>
<path  stroke-linejoin="miter" stroke-linecap="butt" stroke-miterlimit="10" stroke-width="1.8391" d="M22.805 9.563v-2.943c0-3.31-2.575-5.885-5.885-5.885s-5.885 2.943-5.885 5.885v2.943"></path>
<path  stroke-linejoin="miter" stroke-linecap="butt" stroke-miterlimit="10" stroke-width="1.8391" d="M16.184 9.563v-2.943c0-3.31-2.575-5.885-5.885-5.885s-5.885 2.943-5.885 5.885v2.943"></path>
<path  stroke-linejoin="miter" stroke-linecap="butt" stroke-miterlimit="10" stroke-width="1.8391" d="M4.414 9.563v17.287"></path>
</symbol>
<symbol id="icon-fb" viewBox="0 0 14 32">
<title>fb</title>
<path d="M13.373 0.478c-3.343-0.955-5.731-0.478-7.642 0.478-0.955 0.478-1.433 1.433-1.91 2.866-0.478 0.478-0.478 1.91-0.478 3.343v1.91h-3.343v3.821h3.343v19.104h4.776v-19.104h4.299v-3.821h-4.299v-1.433c0-1.433 0.478-1.91 0.478-2.388 0.478-0.955 2.388-0.955 4.299-0.478h0.478l0.955-4.298h-0.955z"></path>
</symbol>
<symbol id="icon-insta" viewBox="0 0 32 32">
<title>insta</title>
<path d="M22.925 0h-14.328c-4.776 0-8.597 3.821-8.597 8.597v14.328c0 4.776 3.821 8.597 8.597 8.597h14.328c4.776 0 8.597-3.821 8.597-8.597v-14.328c0.478-4.776-3.821-8.597-8.597-8.597zM28.179 8.597v14.328c0 2.866-2.388 5.254-5.254 5.254h-14.328c-2.866 0-5.254-2.388-5.254-5.254v-14.328c0-2.866 2.388-5.254 5.254-5.254h14.328c2.866 0 5.254 2.388 5.254 5.254z"></path>
<path d="M15.761 7.164c-4.776 0-8.597 3.821-8.597 8.597s3.821 8.597 8.597 8.597c4.776 0 8.597-3.821 8.597-8.597 0.478-4.776-3.821-8.597-8.597-8.597zM21.493 15.761c0 2.866-2.388 5.254-5.254 5.254s-5.254-2.388-5.254-5.254c0-2.866 2.388-5.254 5.254-5.254 2.388 0 5.254 2.388 5.254 5.254z"></path>
<path d="M26.269 7.164c0 1.055-0.855 1.91-1.91 1.91s-1.91-0.855-1.91-1.91c0-1.055 0.855-1.91 1.91-1.91s1.91 0.855 1.91 1.91z"></path>
</symbol>
<symbol id="icon-mail" viewBox="0 0 34 32">
<title>mail</title>
<path d="M27.429 0h-20.779c-3.74 0-6.649 2.909-6.649 6.649v18.701c0 3.74 2.909 6.649 6.649 6.649h20.779c3.74 0 6.649-2.909 6.649-6.649v-18.701c0-3.74-2.909-6.649-6.649-6.649zM6.649 3.325h20.779c1.662 0 3.325 1.247 3.325 3.325v4.571l-13.714 6.649-13.714-6.649v-4.571c0-1.662 1.662-3.325 3.325-3.325zM27.429 28.675h-20.779c-1.662 0-3.325-1.247-3.325-3.325v-10.39l13.714 6.649 13.714-6.649v10.39c0 1.662-1.662 3.325-3.325 3.325z"></path>
</symbol>
<symbol id="icon-messenger" viewBox="0 0 32 32">
<title>messenger</title>
<path d="M32 15.543c0 8.686-6.857 15.543-16 15.543-2.286 0-5.029-0.457-7.314-1.829l-8.686 2.743 2.743-8.229c-1.371-2.286-2.286-5.029-2.286-8.229 0-8.686 7.314-15.543 16-15.543s15.543 6.857 15.543 15.543zM16.457 2.286c-7.314 0-13.257 5.943-13.257 13.257 0 2.743 0.914 5.486 2.743 7.771l-1.829 5.029 5.029-1.829c2.286 1.371 4.571 2.286 7.314 2.286 7.314 0 13.257-5.943 13.257-13.257s-5.943-13.257-13.257-13.257zM24.229 19.2c0 0-0.457-0.457-0.914-0.457s-2.286-0.914-2.743-1.371c-0.457 0-0.457 0-0.914 0 0 0.914-0.457 1.829-0.914 1.829 0 0.457-0.457 0.457-0.914 0-0.457 0-1.829-0.457-3.2-1.829-0.914-0.914-1.829-2.286-1.829-2.743s0-0.457 0-0.914c0.457 0 0.457 0 0.914-0.457 0 0 0-0.457 0-0.457 0-0.457 0-0.457 0-0.457s-0.914-2.286-1.371-2.743c0-1.371-0.457-0.914-0.457-0.914s-0.457 0-0.914 0c-0.457 0-0.457 0-0.914 0.457s-1.371 1.371-1.371 3.2c0 1.829 1.371 3.657 1.371 4.114s2.743 4.114 6.4 5.943c4.114 0.914 4.114 0.457 5.029 0.457s2.286-0.914 2.743-1.829c0-0.914 0-1.829 0-1.829z"></path>
</symbol>
<symbol id="icon-phone" viewBox="0 0 32 32">
<title>phone</title>
<path d="M11.294 8.784c-1.255 1.255-4.392 3.765-1.255 6.274 2.51 2.51 6.274 6.274 7.529 6.902s3.765 1.882 5.647-0.627 1.882-1.882 3.137-0.627c1.255 0.627 3.765 1.882 5.020 3.765s0.627 2.51 0 3.765c-1.255 0.627-2.51 2.51-5.020 3.137-2.51 1.255-4.392 1.255-7.529-0.627-2.51-1.882-12.549-11.294-14.431-13.804-1.882-1.882-3.137-3.137-4.392-6.274-0.627-3.137 0-5.020 1.255-6.902 1.882-1.882 3.137-3.765 4.392-3.765 0.627 0 1.255 0 3.137 1.255 1.255 1.255 2.51 3.137 3.137 4.392s0.627 1.882-0.627 3.137z"></path>
</symbol>
</defs>
</svg>
